<mxfile host="Electron" agent="Mozilla/5.0 (Windows NT 10.0; Win64; x64) AppleWebKit/537.36 (KHTML, like Gecko) draw.io/24.7.17 Chrome/128.0.6613.36 Electron/32.0.1 Safari/537.36" version="24.7.17">
  <diagram id="C5RBs43oDa-KdzZeNtuy" name="Page-1">
    <mxGraphModel dx="435" dy="515" grid="1" gridSize="10" guides="1" tooltips="1" connect="1" arrows="1" fold="1" page="1" pageScale="1" pageWidth="827" pageHeight="1169" math="0" shadow="0">
      <root>
        <mxCell id="WIyWlLk6GJQsqaUBKTNV-0" />
        <mxCell id="WIyWlLk6GJQsqaUBKTNV-1" parent="WIyWlLk6GJQsqaUBKTNV-0" />
        <mxCell id="51e08THtO5hfb56ou28l-0" value="" style="strokeWidth=2;html=1;shape=mxgraph.flowchart.start_2;whiteSpace=wrap;" vertex="1" parent="WIyWlLk6GJQsqaUBKTNV-1">
          <mxGeometry x="280" y="80" width="40" height="40" as="geometry" />
        </mxCell>
        <mxCell id="51e08THtO5hfb56ou28l-3" value="" style="edgeStyle=orthogonalEdgeStyle;rounded=0;orthogonalLoop=1;jettySize=auto;html=1;" edge="1" parent="WIyWlLk6GJQsqaUBKTNV-1" source="51e08THtO5hfb56ou28l-1" target="51e08THtO5hfb56ou28l-2">
          <mxGeometry relative="1" as="geometry" />
        </mxCell>
        <mxCell id="51e08THtO5hfb56ou28l-1" value="Danh sách đặc trưng" style="rounded=1;whiteSpace=wrap;html=1;" vertex="1" parent="WIyWlLk6GJQsqaUBKTNV-1">
          <mxGeometry x="235" y="140" width="130" height="40" as="geometry" />
        </mxCell>
        <mxCell id="51e08THtO5hfb56ou28l-5" value="" style="edgeStyle=orthogonalEdgeStyle;rounded=0;orthogonalLoop=1;jettySize=auto;html=1;" edge="1" parent="WIyWlLk6GJQsqaUBKTNV-1" source="51e08THtO5hfb56ou28l-2" target="51e08THtO5hfb56ou28l-4">
          <mxGeometry relative="1" as="geometry" />
        </mxCell>
        <mxCell id="51e08THtO5hfb56ou28l-2" value="Chọn xoá đặc trưng" style="rounded=1;whiteSpace=wrap;html=1;" vertex="1" parent="WIyWlLk6GJQsqaUBKTNV-1">
          <mxGeometry x="235" y="220" width="130" height="40" as="geometry" />
        </mxCell>
        <mxCell id="51e08THtO5hfb56ou28l-10" style="edgeStyle=orthogonalEdgeStyle;rounded=0;orthogonalLoop=1;jettySize=auto;html=1;entryX=0.5;entryY=0;entryDx=0;entryDy=0;" edge="1" parent="WIyWlLk6GJQsqaUBKTNV-1" source="51e08THtO5hfb56ou28l-4" target="51e08THtO5hfb56ou28l-9">
          <mxGeometry relative="1" as="geometry" />
        </mxCell>
        <mxCell id="51e08THtO5hfb56ou28l-11" value="Có" style="edgeLabel;html=1;align=center;verticalAlign=middle;resizable=0;points=[];" vertex="1" connectable="0" parent="51e08THtO5hfb56ou28l-10">
          <mxGeometry x="-0.3825" y="-1" relative="1" as="geometry">
            <mxPoint x="-19" y="-16" as="offset" />
          </mxGeometry>
        </mxCell>
        <mxCell id="51e08THtO5hfb56ou28l-4" value="Xác nhận" style="rhombus;whiteSpace=wrap;html=1;" vertex="1" parent="WIyWlLk6GJQsqaUBKTNV-1">
          <mxGeometry x="265" y="290" width="70" height="70" as="geometry" />
        </mxCell>
        <mxCell id="51e08THtO5hfb56ou28l-6" value="Huỷ" style="rounded=1;whiteSpace=wrap;html=1;" vertex="1" parent="WIyWlLk6GJQsqaUBKTNV-1">
          <mxGeometry x="150" y="410" width="105" height="40" as="geometry" />
        </mxCell>
        <mxCell id="51e08THtO5hfb56ou28l-7" style="edgeStyle=orthogonalEdgeStyle;rounded=0;orthogonalLoop=1;jettySize=auto;html=1;entryX=0.448;entryY=0.075;entryDx=0;entryDy=0;entryPerimeter=0;" edge="1" parent="WIyWlLk6GJQsqaUBKTNV-1" source="51e08THtO5hfb56ou28l-4" target="51e08THtO5hfb56ou28l-6">
          <mxGeometry relative="1" as="geometry" />
        </mxCell>
        <mxCell id="51e08THtO5hfb56ou28l-8" value="Không" style="edgeLabel;html=1;align=center;verticalAlign=middle;resizable=0;points=[];" vertex="1" connectable="0" parent="51e08THtO5hfb56ou28l-7">
          <mxGeometry x="-0.3718" y="-3" relative="1" as="geometry">
            <mxPoint x="14" y="-12" as="offset" />
          </mxGeometry>
        </mxCell>
        <mxCell id="51e08THtO5hfb56ou28l-13" value="" style="edgeStyle=orthogonalEdgeStyle;rounded=0;orthogonalLoop=1;jettySize=auto;html=1;" edge="1" parent="WIyWlLk6GJQsqaUBKTNV-1" source="51e08THtO5hfb56ou28l-9" target="51e08THtO5hfb56ou28l-12">
          <mxGeometry relative="1" as="geometry" />
        </mxCell>
        <mxCell id="51e08THtO5hfb56ou28l-9" value="Xoá" style="rounded=1;whiteSpace=wrap;html=1;" vertex="1" parent="WIyWlLk6GJQsqaUBKTNV-1">
          <mxGeometry x="380" y="370" width="105" height="40" as="geometry" />
        </mxCell>
        <mxCell id="51e08THtO5hfb56ou28l-18" style="edgeStyle=orthogonalEdgeStyle;rounded=0;orthogonalLoop=1;jettySize=auto;html=1;entryX=0.5;entryY=0;entryDx=0;entryDy=0;" edge="1" parent="WIyWlLk6GJQsqaUBKTNV-1" source="51e08THtO5hfb56ou28l-12" target="51e08THtO5hfb56ou28l-16">
          <mxGeometry relative="1" as="geometry" />
        </mxCell>
        <mxCell id="51e08THtO5hfb56ou28l-19" value="Được" style="edgeLabel;html=1;align=center;verticalAlign=middle;resizable=0;points=[];" vertex="1" connectable="0" parent="51e08THtO5hfb56ou28l-18">
          <mxGeometry x="-0.6417" y="3" relative="1" as="geometry">
            <mxPoint x="-3" y="-12" as="offset" />
          </mxGeometry>
        </mxCell>
        <mxCell id="51e08THtO5hfb56ou28l-12" value="" style="rhombus;whiteSpace=wrap;html=1;" vertex="1" parent="WIyWlLk6GJQsqaUBKTNV-1">
          <mxGeometry x="397.5" y="460" width="70" height="70" as="geometry" />
        </mxCell>
        <mxCell id="51e08THtO5hfb56ou28l-14" value="Thông báo xoá thất bại" style="rounded=1;whiteSpace=wrap;html=1;" vertex="1" parent="WIyWlLk6GJQsqaUBKTNV-1">
          <mxGeometry x="292.5" y="545" width="105" height="40" as="geometry" />
        </mxCell>
        <mxCell id="51e08THtO5hfb56ou28l-15" style="edgeStyle=orthogonalEdgeStyle;rounded=0;orthogonalLoop=1;jettySize=auto;html=1;entryX=0.633;entryY=-0.025;entryDx=0;entryDy=0;entryPerimeter=0;exitX=0;exitY=0.5;exitDx=0;exitDy=0;" edge="1" parent="WIyWlLk6GJQsqaUBKTNV-1" source="51e08THtO5hfb56ou28l-12" target="51e08THtO5hfb56ou28l-14">
          <mxGeometry relative="1" as="geometry" />
        </mxCell>
        <mxCell id="51e08THtO5hfb56ou28l-17" value="Sai" style="edgeLabel;html=1;align=center;verticalAlign=middle;resizable=0;points=[];" vertex="1" connectable="0" parent="51e08THtO5hfb56ou28l-15">
          <mxGeometry x="-0.5086" relative="1" as="geometry">
            <mxPoint x="-11" y="-15" as="offset" />
          </mxGeometry>
        </mxCell>
        <mxCell id="51e08THtO5hfb56ou28l-16" value="Thông báo xoá thành công" style="rounded=1;whiteSpace=wrap;html=1;" vertex="1" parent="WIyWlLk6GJQsqaUBKTNV-1">
          <mxGeometry x="485" y="545" width="105" height="40" as="geometry" />
        </mxCell>
        <mxCell id="51e08THtO5hfb56ou28l-20" value="Lấy lại dữ liệu mới" style="rounded=1;whiteSpace=wrap;html=1;" vertex="1" parent="WIyWlLk6GJQsqaUBKTNV-1">
          <mxGeometry x="485" y="630" width="105" height="40" as="geometry" />
        </mxCell>
        <mxCell id="51e08THtO5hfb56ou28l-21" value="" style="strokeWidth=2;html=1;shape=mxgraph.flowchart.start_2;whiteSpace=wrap;" vertex="1" parent="WIyWlLk6GJQsqaUBKTNV-1">
          <mxGeometry x="280" y="630" width="40" height="40" as="geometry" />
        </mxCell>
        <mxCell id="51e08THtO5hfb56ou28l-22" style="edgeStyle=orthogonalEdgeStyle;rounded=0;orthogonalLoop=1;jettySize=auto;html=1;entryX=1;entryY=0.5;entryDx=0;entryDy=0;entryPerimeter=0;" edge="1" parent="WIyWlLk6GJQsqaUBKTNV-1" source="51e08THtO5hfb56ou28l-20" target="51e08THtO5hfb56ou28l-21">
          <mxGeometry relative="1" as="geometry" />
        </mxCell>
        <mxCell id="51e08THtO5hfb56ou28l-23" style="edgeStyle=orthogonalEdgeStyle;rounded=0;orthogonalLoop=1;jettySize=auto;html=1;entryX=0.145;entryY=0.145;entryDx=0;entryDy=0;entryPerimeter=0;" edge="1" parent="WIyWlLk6GJQsqaUBKTNV-1" source="51e08THtO5hfb56ou28l-14" target="51e08THtO5hfb56ou28l-21">
          <mxGeometry relative="1" as="geometry" />
        </mxCell>
        <mxCell id="51e08THtO5hfb56ou28l-24" style="edgeStyle=orthogonalEdgeStyle;rounded=0;orthogonalLoop=1;jettySize=auto;html=1;entryX=0;entryY=0.5;entryDx=0;entryDy=0;entryPerimeter=0;exitX=0.5;exitY=1;exitDx=0;exitDy=0;" edge="1" parent="WIyWlLk6GJQsqaUBKTNV-1" source="51e08THtO5hfb56ou28l-6" target="51e08THtO5hfb56ou28l-21">
          <mxGeometry relative="1" as="geometry" />
        </mxCell>
      </root>
    </mxGraphModel>
  </diagram>
</mxfile>
